<svg width="97" height="24" viewBox="0 0 97 24" fill="none" xmlns="http://www.w3.org/2000/svg">
<g clip-path="url(#clip0_347_7870)">
<path fill-rule="evenodd" clip-rule="evenodd" d="M37.6803 7.00981L36.877 6.4073L37.2258 6.03797C37.2027 5.44448 37.4755 4.738 37.9952 4.15217C38.5651 3.50985 39.3145 3.14506 39.9453 3.15845L40.2912 2.79224L40.8937 3.59558L40.8829 3.60709C41.35 4.22716 41.1642 5.34497 40.3611 6.25051C39.5097 7.20966 38.3396 7.50879 37.6832 7.00673L37.6803 7.00981Z" fill="url(#paint0_linear_347_7870)"/>
<path d="M39.8117 5.68737C40.7245 4.65853 40.9033 3.32656 40.2109 2.71233C39.5186 2.09811 38.2174 2.43421 37.3046 3.46305C36.3918 4.49189 36.2131 5.82386 36.9054 6.43809C37.5977 7.05231 38.8989 6.71621 39.8117 5.68737Z" fill="url(#paint1_linear_347_7870)"/>
<path d="M39.8244 5.69847C40.7316 4.67594 40.9001 3.34407 40.2009 2.72366C39.5016 2.10325 38.1993 2.42923 37.2921 3.45176C36.3849 4.4743 36.2163 5.80617 36.9156 6.42658C37.6148 7.04699 38.9172 6.72101 39.8244 5.69847Z" fill="#0052FE"/>
<path d="M10.3802 12.0675L19.2748 2.53735H14.5447L5.09816 12.4603V2.53735H0.847656V22.2692H5.09816V17.617L7.58131 15.0398L13.4964 22.2692H18.4876L10.9819 12.825L10.3802 12.0667V12.0675Z" fill="#0052FE"/>
<path d="M32.9822 11.3068C31.6599 9.20927 29.2338 7.91187 26.2759 7.91187C23.1147 7.91187 20.548 9.39484 19.2964 11.7446C18.7558 12.7512 18.4609 13.9201 18.4609 15.1966C18.4609 19.456 21.7595 22.4814 26.2759 22.4814C30.7923 22.4814 34.066 19.456 34.066 15.1966C34.066 13.7289 33.6763 12.4066 32.9822 11.3068V11.3068ZM26.2759 19.1145C24.2161 19.1145 22.6311 17.642 22.6311 15.1966C22.6311 13.0935 23.8008 11.7101 25.4388 11.3647C25.7063 11.306 25.9867 11.2771 26.2759 11.2771C26.4791 11.2771 26.6744 11.2899 26.8664 11.3213C28.6249 11.5751 29.8934 12.9898 29.8934 15.1966C29.8934 17.642 28.3365 19.1145 26.2767 19.1145H26.2759Z" fill="#0052FE"/>
<path d="M40.9308 8.12207H36.812V22.2698H40.9308V8.12207Z" fill="#0052FE"/>
<path d="M53.3951 7.91187C51.4671 7.91187 49.8034 8.57061 48.6947 9.77884V8.12234H44.7607V22.2701H48.8787V15.2745C48.8787 14.2463 49.1004 13.4357 49.4949 12.834C50.0926 11.9061 51.0887 11.4635 52.2865 11.4635C53.9052 11.4635 54.9191 12.2933 55.1247 14.0808C55.1512 14.3041 55.1641 14.5467 55.1641 14.8022V22.2693H57.4327L59.2853 19.697V14.1723C59.2853 9.85757 56.7491 7.91187 53.3951 7.91187V7.91187Z" fill="#0052FE"/>
<path d="M80.6954 2.46997L60.4888 22.2701H66.7782L68.6243 19.6455L79.0798 4.76915L80.6954 2.46997Z" fill="url(#paint2_linear_347_7870)"/>
<path d="M74.7393 2.46997L74.0935 3.36811L63.9528 17.4556L60.4888 22.2701L80.6954 2.46997H74.7393Z" fill="url(#paint3_linear_347_7870)"/>
<path d="M78.6955 18.8124L78.4344 18.4428C78.2167 18.1343 77.8624 17.9512 77.4864 17.9512H72.733C72.5571 17.9512 72.4205 18.0556 72.3555 18.1946L81.1417 22.27L78.6955 18.8124Z" fill="#F69300"/>
<path d="M72.3552 18.1948C72.2973 18.3185 72.2965 18.4696 72.3825 18.6013L73.3586 20.0867H73.361L74.7966 22.2702H81.1422L72.356 18.1948H72.3552Z" fill="url(#paint4_linear_347_7870)"/>
<path d="M69.4987 6.13477L67.994 3.92556L67.0027 2.4707H60.7944L69.4015 6.70515C69.5702 6.57902 69.6337 6.3332 69.4995 6.13477H69.4987Z" fill="url(#paint5_linear_347_7870)"/>
<path d="M60.7935 2.47004L63.4421 6.28835C63.4533 6.30361 63.4638 6.31647 63.475 6.33173C63.6943 6.61853 64.0342 6.78803 64.3973 6.78803H69.1531C69.2503 6.78803 69.333 6.75429 69.4013 6.70368L60.7943 2.46924L60.7935 2.47004Z" fill="#F69300"/>
<path d="M89.4298 3.22611H87.7573V7.61238H86.6271V3.22611H84.9775V2.39062H89.4298V3.22611ZM91.5417 2.39062L92.9459 6.16189L94.3444 2.39062H95.8227V7.61238H94.6811V6.16189L94.8067 3.69026L93.3283 7.61238H92.5578L91.0851 3.69606L91.1993 6.16189V7.61238H90.0748V2.39062H91.5417V2.39062Z" fill="black"/>
</g>
<defs>
<linearGradient id="paint0_linear_347_7870" x1="40.9941" y1="3.79644" x2="37.9815" y2="7.31112" gradientUnits="userSpaceOnUse">
<stop stop-color="#3372F5"/>
<stop offset="0.249995" stop-color="#3372F5"/>
<stop offset="0.505208" stop-color="#80DBFB"/>
<stop offset="0.838547" stop-color="#3372F5"/>
<stop offset="1" stop-color="#3372F5"/>
</linearGradient>
<linearGradient id="paint1_linear_347_7870" x1="45.4545" y1="3.78473" x2="44.6486" y2="4.69194" gradientUnits="userSpaceOnUse">
<stop stop-color="#0080D4"/>
<stop offset="0.47" stop-color="white"/>
<stop offset="0.6" stop-color="#F1F8FC"/>
<stop offset="1" stop-color="#007DCC"/>
</linearGradient>
<linearGradient id="paint2_linear_347_7870" x1="76.1556" y1="7.78331" x2="68.327" y2="16.8402" gradientUnits="userSpaceOnUse">
<stop stop-color="#FFAC00"/>
<stop offset="1" stop-color="#FE7801"/>
</linearGradient>
<linearGradient id="paint3_linear_347_7870" x1="60.4888" y1="12.3704" x2="80.6954" y2="12.3704" gradientUnits="userSpaceOnUse">
<stop stop-color="#FFCE00"/>
<stop offset="1" stop-color="#FFB003"/>
</linearGradient>
<linearGradient id="paint4_linear_347_7870" x1="72.3142" y1="20.2329" x2="81.1414" y2="20.2329" gradientUnits="userSpaceOnUse">
<stop stop-color="#FE8B01"/>
<stop offset="1" stop-color="#FE7801"/>
</linearGradient>
<linearGradient id="paint5_linear_347_7870" x1="60.7936" y1="4.58752" x2="69.5718" y2="4.58752" gradientUnits="userSpaceOnUse">
<stop stop-color="#FFCE00"/>
<stop offset="1" stop-color="#FFC101"/>
</linearGradient>
<clipPath id="clip0_347_7870">
<rect width="96" height="24" fill="white" transform="translate(0.847656)"/>
</clipPath>
</defs>
</svg>
